<svg id="Icon_awesome-arrow-right" data-name="Icon awesome-arrow-right" xmlns="http://www.w3.org/2000/svg" width="27.5" height="23.166" viewBox="0 0 27.5 23.166">
  <path id="Icon_awesome-arrow-right-2" data-name="Icon awesome-arrow-right" d="M11.692,4.2l1.363-1.178a1.634,1.634,0,0,1,2.081,0L27.067,13.328a1.151,1.151,0,0,1,0,1.8L15.136,25.439a1.634,1.634,0,0,1-2.081,0l-1.363-1.178a1.158,1.158,0,0,1,.025-1.819l7.4-6.09H1.473A1.381,1.381,0,0,1,0,15.079v-1.7a1.381,1.381,0,0,1,1.473-1.273h17.64l-7.4-6.09A1.15,1.15,0,0,1,11.692,4.2Z" transform="translate(0 -2.647)" fill="#ce6e43"/>
</svg>
